<?xml version="1.0" encoding="UTF-8" standalone="no"?>
<!-- Created with Inkscape (http://www.inkscape.org/) -->

<svg
   xmlns:dc="http://purl.org/dc/elements/1.1/"
   xmlns:cc="http://creativecommons.org/ns#"
   xmlns:rdf="http://www.w3.org/1999/02/22-rdf-syntax-ns#"
   xmlns:svg="http://www.w3.org/2000/svg"
   xmlns="http://www.w3.org/2000/svg"
   xmlns:sodipodi="http://sodipodi.sourceforge.net/DTD/sodipodi-0.dtd"
   xmlns:inkscape="http://www.inkscape.org/namespaces/inkscape"
   width="171.47"
   height="172.8125"
   id="svg2985"
   version="1.1"
   inkscape:version="0.48.4 r9939"
   sodipodi:docname="cogT.png"
   inkscape:export-filename="G:\Work\FileZilla\watagaming\games\Prototype01\assets\cog.png"
   inkscape:export-xdpi="90"
   inkscape:export-ydpi="90">
  <sodipodi:namedview
     id="base"
     pagecolor="#ffffff"
     bordercolor="#666666"
     borderopacity="1.0"
     inkscape:pageopacity="0"
     inkscape:pageshadow="2"
     inkscape:zoom="1.4"
     inkscape:cx="76.72197"
     inkscape:cy="43.426645"
     inkscape:document-units="px"
     inkscape:current-layer="svg2985"
     showgrid="false"
     inkscape:window-width="1366"
     inkscape:window-height="716"
     inkscape:window-x="-8"
     inkscape:window-y="22"
     inkscape:window-maximized="1"
     fit-margin-top="0"
     fit-margin-left="0"
     fit-margin-right="0"
     fit-margin-bottom="0" />
  <defs
     id="defs2987" />
  <metadata
     id="metadata2990">
    <rdf:RDF>
      <cc:Work
         rdf:about="">
        <dc:format>image/svg+xml</dc:format>
        <dc:type
           rdf:resource="http://purl.org/dc/dcmitype/StillImage" />
        <dc:title></dc:title>
      </cc:Work>
    </rdf:RDF>
  </metadata>
  <g
     id="layer1"
     inkscape:groupmode="layer"
     inkscape:label="Layer 1"
     transform="translate(-154.65625,-249.53125)" />
  <path
     style="fill:none;stroke:#000000"
     d="m 89.18304,0.51339 -3.125,6.3125 -1.125,4.8125 0.0312,1.5625 -7,0.4375 -0.15625,-1.5625 -1.71875,-4.625 -3.875,-5.875 -4.5,0.875 -1.4375,6.875 0.125,4.9375 0.40625,1.5 -6.6875,2.1875 -0.53125,-1.46875 -2.8125,-4.0625 -5.21875,-4.71875 -4.15625,1.9375 0.3125,7.03125 1.34375,4.75 0.78125,1.375 -5.90625,3.75 -0.90625,-1.28125 -3.75,-3.25 -6.21875,-3.28125 -3.53125,2.9375 2.0625,6.71875 2.46875,4.28125 1.09375,1.125 -4.8125,5.09375 -1.1875,-1 -4.40625,-2.21875 -6.84375,-1.625 -2.6875,3.71875 3.65625,6 3.46875,3.53125 1.34375,0.8125 -3.40625,6.125 -1.40625,-0.6875 -4.8125,-1.03125 -7.03125,0.125 -1.6875,4.28125 5.03125,4.90625 4.25,2.53125 1.46875,0.46875 -1.71875,6.78125 -1.53125,-0.3125 -4.9375,0.1875 -6.78125,1.875 -0.59375,4.5625 6.125,3.5 4.71875,1.40625 1.5625,0.0625 0,7.03125 -1.5625,0.0625 -4.71875,1.40625 -6.125,3.5 0.59375,4.5625 6.78125,1.875 4.9375,0.1875 1.53125,-0.3125 1.71875,6.78125 -1.46875,0.46875 -4.25,2.53125 -5.03125,4.90625 1.6875,4.28125 7.03125,0.125 4.8125,-1.0625 1.40625,-0.6875 3.40625,6.15625 -1.34375,0.8125 -3.46875,3.53125 -3.65625,6 2.6875,3.71875 6.84375,-1.625 4.40625,-2.21875 1.1875,-1 4.8125,5.09375 -1.09375,1.125 -2.46875,4.28125 -2.0625,6.71875 3.53125,2.9375 6.21875,-3.28125 3.75,-3.25 0.90625,-1.28125 5.90625,3.75 -0.78125,1.375 -1.34375,4.75 -0.3125,7.03125 4.15625,1.9375 5.21875,-4.71875 2.8125,-4.0625 0.53125,-1.46875 6.6875,2.1875 -0.40625,1.5 -0.125,4.9375 1.4375,6.875 4.5,0.875 3.875,-5.875 1.71875,-4.625 0.15625,-1.5625 7,0.4375 -0.0312,1.5625 1.125,4.8125 3.125,6.3125 4.5625,-0.28125 2.28125,-6.65625 0.5,-4.90625 -0.21875,-1.5625 6.90625,-1.3125 0.375,1.53125 2.25,4.375 4.59375,5.34375 4.34375,-1.4375 0.59375,-7 -0.75,-4.875 -0.59375,-1.4375 6.34375,-3 0.75,1.375 3.28125,3.6875 5.75,4.03125 3.875,-2.46875 -1.1875,-6.90625 -1.9375,-4.5625 -0.9375,-1.25 5.40625,-4.46875 1.0625,1.15625 4.09375,2.75 6.59375,2.46875 3.125,-3.34375 -2.875,-6.40625 -3,-3.9375 -1.21875,-0.96875 4.125,-5.6875 1.3125,0.875 4.65625,1.625 7,0.75 2.21875,-4 -4.40625,-5.5 -3.875,-3.0625 -1.40625,-0.65625 2.5625,-6.5 1.5,0.5 4.90625,0.40625 6.96875,-1 1.125,-4.4375 -5.59375,-4.21875 -4.53125,-2 -1.53125,-0.28125 0.875,-6.96875 1.5625,0.125 4.875,-0.8125 6.46875,-2.6875 0,-4.59375 -6.46875,-2.6875 -4.875,-0.8125 -1.5625,0.125 -0.875,-6.96875 1.53125,-0.28125 4.53125,-2 5.59375,-4.21875 -1.125,-4.4375 -6.96875,-1 -4.90625,0.40625 -1.5,0.5 -2.5625,-6.5 1.40625,-0.65625 3.875,-3.0625 4.40625,-5.5 -2.21875,-4 -7,0.75 -4.65625,1.625 -1.3125,0.875 -4.125,-5.6875 1.21875,-0.96875 3,-3.9375 2.875,-6.40625 -3.125,-3.34375 -6.59375,2.46875 -4.09375,2.75 -1.0625,1.15625 -5.40625,-4.46875 0.9375,-1.25 1.9375,-4.5625 1.1875,-6.9375 -3.875,-2.4375 -5.75,4.03125 -3.28125,3.6875 -0.75,1.375 -6.34375,-3 0.59375,-1.4375 0.75,-4.875 -0.59375,-7.03125 -4.34375,-1.40625 -4.59375,5.34375 -2.25,4.375 -0.375,1.53125 -6.90625,-1.3125 0.21875,-1.5625 -0.5,-4.90625 -2.28125,-6.65625 -4.5625,-0.28125 z m -2.9375,22.59375 c 7.50361,0 14.70154,1.33094 21.375,3.75 l -16.46875,32.5 c -1.59522,-0.28791 -3.22808,-0.4375 -4.90625,-0.4375 -7.85493,0 -14.92636,3.28138 -19.9375,8.5625 L 33.99554,51.07589 C 45.3064,34.21106 64.48509,23.10714 86.24554,23.10714 z m 35.375,10.9375 c 16.64482,11.38567 27.59375,30.57408 27.59375,52.34375 0,7.47498 -1.28997,14.65438 -3.65625,21.3125 l -32.25,-16.375 c 0.28757,-1.59433 0.4375,-3.22908 0.4375,-4.90625 0,-7.85126 -3.2857,-14.95802 -8.5625,-19.96875 l 16.4375,-32.40625 z m -94.6875,31.0625 32.25,16.375 c -0.28757,1.59433 -0.4375,3.26033 -0.4375,4.9375 0,7.85126 3.2857,14.92677 8.5625,19.9375 l -16.4375,32.40625 c -16.65721,-11.39295 -27.59375,-30.59573 -27.59375,-52.375 0,-7.47388 1.29063,-14.62621 3.65625,-21.28125 z m 59.3125,5.21875 c 8.876,0 16.0625,7.1865 16.0625,16.0625 0,8.876 -7.1865,16.09375 -16.0625,16.09375 -8.876,0 -16.0625,-7.21775 -16.0625,-16.09375 0,-8.876 7.1865,-16.0625 16.0625,-16.0625 z m 19.9375,35 32.3125,16.40625 c -11.3109,16.87372 -30.48975,27.96875 -52.25,27.96875 -7.51398,0 -14.72503,-1.32227 -21.40625,-3.75 l 16.46875,-32.5 c 1.60483,0.29153 3.24857,0.46875 4.9375,0.46875 7.85493,0 14.92636,-3.31263 19.9375,-8.59375 z"
     id="path3288"
     inkscape:connector-curvature="0" />
  <path
     style="fill:#ffffff"
     d="m 88.142977,168.13798 c -0.885079,-1.82176 -1.803429,-4.72911 -2.040779,-6.46078 l -0.43155,-3.14849 -4.045135,0 c -4.031029,0 -4.048407,0.009 -4.985379,2.67857 -0.517136,1.47322 -1.787064,4.05462 -2.822064,5.73645 -1.497057,2.43266 -2.241187,3.01683 -3.639464,2.85715 -1.41774,-0.16192 -1.874633,-0.75328 -2.362565,-3.05788 -0.332703,-1.57143 -0.506047,-4.554 -0.385208,-6.62793 l 0.219708,-3.77079 -3.85934,-1.21555 c -3.740304,-1.17806 -3.883508,-1.1729 -4.642858,0.16744 -0.430934,0.76064 -2.338332,3.06519 -4.238662,5.12121 -3.09849,3.35235 -3.62679,3.66002 -5.117978,2.98059 -1.53079,-0.69747 -1.631845,-1.07687 -1.272589,-4.77773 0.214634,-2.21106 0.834444,-5.11409 1.377354,-6.4512 0.542911,-1.33711 0.902535,-2.49037 0.799164,-2.56282 -0.103371,-0.0724 -1.667926,-1.13133 -3.47679,-2.35308 l -3.288841,-2.22136 -2.215655,2.28418 c -1.218611,1.2563 -3.67305,3.07935 -5.454309,4.05124 -3.033626,1.65518 -3.314656,1.69105 -4.439215,0.56648 -1.050988,-1.05098 -1.088529,-1.57449 -0.301325,-4.20194 0.494581,-1.65076 1.674608,-4.22966 2.622284,-5.73087 0.947675,-1.50122 1.723046,-2.99207 1.723046,-3.313 0,-0.32094 -1.261946,-1.81578 -2.804326,-3.32187 l -2.804326,-2.73835 -1.931779,1.51953 c -1.062479,0.83575 -3.255889,1.8612 -4.874246,2.27877 -1.618356,0.41757 -3.48539,0.91625 -4.148964,1.10818 -0.740029,0.21403 -1.517085,-0.23139 -2.009818,-1.15207 -0.659453,-1.2322 -0.477868,-2.05636 1.013917,-4.6019 0.999481,-1.70548 2.859535,-3.97792 4.133455,-5.04985 l 2.316216,-1.94897 -1.859856,-3.30489 c -1.498091,-2.66204 -2.189042,-3.26312 -3.552208,-3.09017 -0.930793,0.11808 -3.97664,0.39196 -6.76855,0.60861 -4.8706537,0.37796 -5.0938787,0.3263 -5.5128239,-1.27574 -0.5457472,-2.08695 2.7203917,-5.68162 7.0798249,-7.792 l 2.981261,-1.4432 -1.029383,-4.08646 -1.029382,-4.08646 -3.035372,0.24141 C 10.359012,100.68522 7.4053055,100.3329 5.4646748,99.769505 2.5903281,98.93504 1.8967597,98.418955 1.723194,96.985469 1.5430535,95.497676 2.0948872,94.930997 5.2946226,93.31794 c 2.0814693,-1.049321 4.8291324,-2.114193 6.1059184,-2.366393 2.296732,-0.453671 2.321429,-0.502242 2.321429,-4.565692 0,-4.06345 -0.0247,-4.112022 -2.321429,-4.565693 -1.276786,-0.2522 -4.0244491,-1.317072 -6.1059184,-2.366393 -3.219841,-1.623193 -3.7527011,-2.174536 -3.5714286,-3.695336 0.1770103,-1.485036 0.8173667,-1.94845 3.7844901,-2.73875 1.9642857,-0.523193 4.9179919,-0.863 6.5637909,-0.755128 l 2.992364,0.196128 1.005014,-3.989729 1.005015,-3.989727 -3.014128,-1.598992 C 9.5579583,60.494046 6.5257014,57.10153 7.0615181,55.052565 c 0.4189452,-1.602049 0.6421702,-1.653707 5.5128239,-1.275748 2.79191,0.21665 5.837757,0.490527 6.76855,0.608616 1.363166,0.172944 2.054117,-0.428136 3.552208,-3.09018 l 1.859856,-3.304887 -2.316216,-1.948968 c -1.27392,-1.071932 -3.133974,-3.344364 -4.133455,-5.049849 -1.491785,-2.545539 -1.67337,-3.369702 -1.013917,-4.601901 0.492733,-0.92068 1.269789,-1.366102 2.009818,-1.152063 0.663574,0.191925 2.530608,0.690605 4.148964,1.108177 1.618357,0.417573 3.811767,1.443015 4.874246,2.27876 l 1.931779,1.519538 2.804326,-2.738351 c 1.54238,-1.506093 2.804326,-3.001438 2.804326,-3.322989 0,-0.32155 -0.778024,-1.783103 -1.728942,-3.247894 -0.950919,-1.464791 -2.130947,-4.043179 -2.622284,-5.729749 -0.76405,-2.622686 -0.734125,-3.225708 0.206772,-4.166605 0.990628,-0.990628 1.447094,-0.923107 4.58657,0.678458 1.91755,0.978215 4.400102,2.74108 5.516781,3.917478 l 2.030325,2.138906 3.505389,-2.179069 c 1.927964,-1.198489 3.505389,-2.252484 3.505389,-2.342213 0,-0.08973 -0.439981,-1.24704 -0.977734,-2.571803 -0.537755,-1.324763 -1.153345,-4.217704 -1.367979,-6.428757 -0.359476,-3.703137 -0.25884,-4.07997 1.276386,-4.7794653 1.486688,-0.6773807 2.000929,-0.3975822 4.762953,2.5915263 1.702978,1.842991 3.61195,4.147282 4.24216,5.120647 l 1.145837,1.769755 3.852046,-1.213253 3.852045,-1.213253 -0.219708,-3.770787 c -0.120839,-2.073933 0.0525,-5.0565018 0.385208,-6.6279303 0.487932,-2.3046042 0.944825,-2.8959624 2.362565,-3.0578762 1.398277,-0.159691 2.142407,0.4244857 3.639464,2.8571428 1.035,1.6818319 2.304928,4.2632337 2.822064,5.7364477 0.936972,2.669233 0.95435,2.678571 4.985379,2.678571 l 4.045135,0 0.43155,-3.148489 c 0.660129,-4.8161548 3.2821,-9.7086535 5.203029,-9.7086535 1.999021,0 3.930893,4.6520454 4.091793,9.8532395 l 0.110664,3.577238 4.126579,0.66527 4.126567,0.665268 1.44573,-3.273365 c 2.96,-6.7019158 7.88773,-9.5943697 8.97374,-5.2673564 0.47544,1.8943074 -0.0352,8.3621884 -0.81676,10.3443534 -0.36807,0.933558 0.36359,1.633002 3.22503,3.083003 l 3.70112,1.875498 2.46634,-2.881369 c 3.6305,-4.241424 6.39158,-6.011952 8.53605,-5.473722 1.69595,0.425656 1.76865,0.638507 1.30481,3.81993 -0.27017,1.853035 -1.16663,4.65487 -1.99213,6.226298 -0.8255,1.571429 -1.50648,3.070421 -1.51328,3.331095 -0.007,0.260673 1.4082,1.598092 3.14446,2.972041 l 3.15684,2.49809 2.55745,-2.050854 c 1.4066,-1.127969 3.97447,-2.54946 5.70638,-3.158868 2.87513,-1.011679 3.26065,-1.006894 4.43407,0.05504 1.2334,1.116215 1.21605,1.299408 -0.43078,4.549287 -0.94377,1.862432 -2.57419,4.406214 -3.62317,5.65285 l -1.90722,2.266611 1.98647,2.866494 c 1.09257,1.576573 2.2045,3.001232 2.47095,3.16591 0.26646,0.164679 2.14501,-0.33154 4.17456,-1.102708 4.84371,-1.840466 8.76757,-1.847019 9.91072,-0.01655 0.76152,1.219395 0.41804,1.840486 -2.8639,5.178571 -2.05105,2.086149 -4.26408,4.114427 -4.91782,4.507284 -1.09792,0.659785 -1.07825,0.997129 0.25788,4.42124 l 1.44649,3.706954 3.4236,-0.405475 c 5.32587,-0.630771 9.82275,0.270377 10.3983,2.083757 0.6193,1.951224 -2.91314,5.034287 -7.7915,6.800322 -3.38364,1.22492 -3.44552,1.30117 -3.04358,3.750342 0.22565,1.375 0.41382,3.179521 0.41814,4.010057 0.006,1.258871 0.57223,1.586807 3.40072,1.971507 1.86607,0.2538 4.75772,1.020707 6.42589,1.704236 2.47583,1.014457 3.03353,1.585814 3.03572,3.110014 0.002,1.539793 -0.52969,2.0704 -3.03304,3.0257 -1.66964,0.63715 -4.5625,1.367364 -6.42857,1.6227 -2.82761,0.386907 -3.39416,0.715822 -3.40072,1.9743 -0.004,0.830536 -0.19249,2.635057 -0.41814,4.010057 -0.40194,2.449172 -0.34006,2.525422 3.04358,3.75034 4.87836,1.76604 8.4108,4.8491 7.7915,6.80032 -0.57555,1.81338 -5.07243,2.71453 -10.3983,2.08376 l -3.4236,-0.40547 -1.44658,3.70695 -1.44657,3.70696 1.54585,1.03128 c 0.85021,0.5672 3.06056,2.59981 4.91188,4.51691 2.93947,3.04391 3.25715,3.66001 2.50675,4.86158 -1.14196,1.82858 -5.07798,1.80795 -9.97227,-0.0523 -2.06671,-0.78551 -3.82258,-1.42837 -3.90192,-1.42857 -0.0793,-1.9e-4 -1.14534,1.45466 -2.36887,3.23301 l -2.22462,3.23336 1.87272,2.22561 c 1.03,1.22408 2.6449,3.74941 3.58867,5.61184 1.68884,3.33277 1.69426,3.40586 0.34297,4.62875 -1.29562,1.17252 -1.54539,1.1745 -4.43407,0.0349 -1.68362,-0.66416 -4.20144,-2.11295 -5.59517,-3.21953 -2.74438,-2.17895 -2.55935,-2.21913 -6.96865,1.51295 l -2.24967,1.90415 1.69145,3.09585 c 0.93029,1.70272 1.90517,4.61197 2.16639,6.46501 0.44769,3.17572 0.37184,3.39504 -1.32107,3.81993 -2.13235,0.53518 -4.90335,-1.22974 -8.46664,-5.39264 l -2.39694,-2.80028 -3.786,1.75408 c -3.01608,1.39737 -3.68604,2.00783 -3.29444,3.00192 0.79459,2.01704 1.31199,8.47321 0.83224,10.38468 -0.24349,0.97013 -1.12279,1.94172 -1.95402,2.1591 -1.90705,0.4987 -4.3723,-2.0746 -6.75323,-7.04923 l -1.728,-3.61042 -4.118687,0.68222 -4.118679,0.68221 -0.141307,3.64249 c -0.212986,5.49033 -1.760586,9.31127 -3.875136,9.56755 -1.443021,0.1749 -2.01295,-0.35303 -3.348264,-3.1015 l 0,3e-5 z m 5.597729,-18.19645 c 11.791094,-1.42216 22.001564,-5.61998 31.766974,-13.06028 4.74027,-3.61162 13.9216,-13.59659 13.92635,-15.14532 0.001,-0.39674 -7.54486,-4.49083 -16.76907,-9.09797 l -16.77131,-8.37663 -2.33584,1.98651 c -5.423197,4.61213 -10.78239,6.56659 -18.005862,6.56659 l -5.058392,0 -8.391558,16.8012 -8.391557,16.8012 1.97005,0.74978 c 7.812457,2.97334 18.034222,3.98419 28.060215,2.77492 l 0,0 z M 59.614827,123.62835 c 4.616071,-8.97558 8.392857,-16.71695 8.392857,-17.20304 0,-0.48608 -1.122428,-2.1951 -2.494286,-3.79781 -3.66006,-4.275953 -5.54909,-9.791124 -5.591065,-16.323545 l -0.03495,-5.43905 -16.187682,-8.31095 c -8.903225,-4.571028 -16.518833,-8.310958 -16.923573,-8.310958 -0.96547,0 -3.540619,10.434315 -4.14265,16.785715 -1.000926,10.559707 2.039604,25.425018 7.231898,35.357138 3.474403,6.64605 10.289112,15.06994 15.849815,19.5925 2.635872,2.14377 4.953207,3.91385 5.149636,3.93351 0.196429,0.0196 4.133929,-7.30791 8.75,-16.28351 z M 147.53248,104.42157 C 150.71547,92.970226 150.7517,81.754662 147.64524,69.508642 144.58541,57.44643 137.0266,45.506125 127.24348,37.28093 c -2.91897,-2.454137 -5.46794,-4.455866 -5.66437,-4.448288 -0.4608,0.01778 -17.22628,33.001523 -17.17875,33.79681 0.0197,0.330406 1.15832,1.912045 2.53018,3.514752 3.62393,4.233751 5.53624,9.784101 5.63094,16.343436 l 0.0788,5.458929 16.07655,8.276821 c 8.8421,4.55224 16.43598,8.28323 16.87528,8.29106 0.4393,0.008 1.31246,-1.83395 1.94035,-4.09288 l 0,0 z M 93.59372,101.57598 C 106.22727,95.637055 106.01074,77.104433 93.236577,71.0084 89.760748,69.349682 82.757763,69.330954 79.301341,70.971136 67.280704,76.675297 65.969133,93.000497 76.932948,100.4506 c 4.639965,3.15294 11.379279,3.60815 16.660772,1.12538 l 0,0 z M 69.015965,66.451767 c 3.484319,-3.63685 9.929998,-6.065761 16.888841,-6.36419 l 6.1114,-0.262087 8.358654,-16.735305 8.35864,-16.735305 -1.80549,-0.686448 C 97.356484,22.029347 81.420006,21.505545 70.094859,24.457798 58.983947,27.354204 49.150472,33.003697 41.25811,41.024985 c -4.280743,4.350671 -8.726819,10.141353 -8.177964,10.651187 0.435479,0.404517 33.085204,16.770538 33.543902,16.814235 0.221143,0.02106 1.297505,-0.896321 2.391917,-2.03864 z"
     id="path3362"
     inkscape:connector-curvature="0"
     inkscape:export-xdpi="90"
     inkscape:export-ydpi="90"
     inkscape:export-filename="G:\Work\FileZilla\watagaming\games\Prototype01\assets\cog.png" />
  <path
     style="fill:#ffffff"
     d="m 88.142977,168.13798 c -0.885079,-1.82176 -1.803429,-4.72911 -2.040779,-6.46078 l -0.43155,-3.14849 -4.045135,0 c -4.031029,0 -4.048407,0.009 -4.985379,2.67857 -0.517136,1.47322 -1.787064,4.05462 -2.822064,5.73645 -1.497057,2.43266 -2.241187,3.01683 -3.639464,2.85715 -1.41774,-0.16192 -1.874633,-0.75328 -2.362565,-3.05788 -0.332703,-1.57143 -0.506047,-4.554 -0.385208,-6.62793 l 0.219708,-3.77079 -3.85934,-1.21555 c -3.740304,-1.17806 -3.883508,-1.1729 -4.642858,0.16744 -0.430934,0.76064 -2.338332,3.06519 -4.238662,5.12121 -3.09849,3.35235 -3.62679,3.66002 -5.117978,2.98059 -1.53079,-0.69747 -1.631845,-1.07687 -1.272589,-4.77773 0.214634,-2.21106 0.834444,-5.11409 1.377354,-6.4512 0.542911,-1.33711 0.902535,-2.49037 0.799164,-2.56282 -0.103371,-0.0724 -1.667926,-1.13133 -3.47679,-2.35308 l -3.288841,-2.22136 -2.215655,2.28418 c -1.218611,1.2563 -3.67305,3.07935 -5.454309,4.05124 -3.033626,1.65518 -3.314656,1.69105 -4.439215,0.56648 -1.050988,-1.05098 -1.088529,-1.57449 -0.301325,-4.20194 0.494581,-1.65076 1.674608,-4.22966 2.622284,-5.73087 0.947675,-1.50122 1.723046,-2.99207 1.723046,-3.313 0,-0.32094 -1.261946,-1.81578 -2.804326,-3.32187 l -2.804326,-2.73835 -1.931779,1.51953 c -1.062479,0.83575 -3.255889,1.8612 -4.874246,2.27877 -1.618356,0.41757 -3.48539,0.91625 -4.148964,1.10818 -0.740029,0.21403 -1.517085,-0.23139 -2.009818,-1.15207 -0.659453,-1.2322 -0.477868,-2.05636 1.013917,-4.6019 0.999481,-1.70548 2.859535,-3.97792 4.133455,-5.04985 l 2.316216,-1.94897 -1.864825,-3.30489 c -1.325621,-2.34929 -2.249456,-3.24154 -3.195064,-3.08581 -0.731632,0.12049 -3.773743,0.40011 -6.760247,0.62137 -5.2547102,0.38931 -5.4442095,0.34799 -5.8699665,-1.28011 -0.5394114,-2.06271 2.4788348,-5.44667 6.9948865,-7.84242 l 3.014128,-1.599 -1.005015,-3.98973 -1.005014,-3.98972 -3.035372,0.24141 C 10.359012,100.68522 7.4053055,100.3329 5.4646748,99.769505 2.5903281,98.93504 1.8967597,98.418955 1.723194,96.985469 1.5430535,95.497676 2.0948872,94.930997 5.2946226,93.31794 c 2.0814693,-1.049321 4.8291324,-2.114193 6.1059184,-2.366393 2.296732,-0.453671 2.321429,-0.502242 2.321429,-4.565692 0,-4.06345 -0.0247,-4.112022 -2.321429,-4.565693 -1.276786,-0.2522 -4.0244491,-1.317072 -6.1059184,-2.366393 -3.219841,-1.623193 -3.7527011,-2.174536 -3.5714286,-3.695336 0.1770103,-1.485036 0.8173667,-1.94845 3.7844901,-2.73875 1.9642857,-0.523193 4.9179919,-0.863 6.5637909,-0.755128 l 2.992364,0.196128 1.005014,-3.989729 1.005015,-3.989727 -3.014128,-1.598992 C 9.5579583,60.494046 6.5257014,57.10153 7.0615181,55.052565 c 0.4189452,-1.602049 0.6421702,-1.653707 5.5128239,-1.275748 2.79191,0.21665 5.837757,0.490527 6.76855,0.608616 1.363166,0.172944 2.054117,-0.428136 3.552208,-3.09018 l 1.859856,-3.304887 -2.316216,-1.948968 c -1.27392,-1.071932 -3.133974,-3.344364 -4.133455,-5.049849 -1.491785,-2.545539 -1.67337,-3.369702 -1.013917,-4.601901 0.492733,-0.92068 1.269789,-1.366102 2.009818,-1.152063 0.663574,0.191925 2.530608,0.690605 4.148964,1.108177 1.618357,0.417573 3.811767,1.443015 4.874246,2.27876 l 1.931779,1.519538 2.804326,-2.738351 c 1.54238,-1.506093 2.804326,-3.001438 2.804326,-3.322989 0,-0.32155 -0.778024,-1.783103 -1.728942,-3.247894 -0.950919,-1.464791 -2.130947,-4.043179 -2.622284,-5.729749 -0.76405,-2.622686 -0.734125,-3.225708 0.206772,-4.166605 0.990628,-0.990628 1.447094,-0.923107 4.58657,0.678458 1.91755,0.978215 4.400102,2.74108 5.516781,3.917478 l 2.030325,2.138906 3.505389,-2.179069 c 1.927964,-1.198489 3.505389,-2.252484 3.505389,-2.342213 0,-0.08973 -0.439981,-1.24704 -0.977734,-2.571803 -0.537755,-1.324763 -1.153345,-4.217704 -1.367979,-6.428757 -0.359476,-3.703137 -0.25884,-4.07997 1.276386,-4.7794653 1.486688,-0.6773807 2.000929,-0.3975822 4.762953,2.5915263 1.702978,1.842991 3.61195,4.147282 4.24216,5.120647 l 1.145837,1.769755 3.852046,-1.213253 3.852045,-1.213253 -0.219708,-3.770787 c -0.120839,-2.073933 0.0525,-5.0565018 0.385208,-6.6279303 0.487932,-2.3046042 0.944825,-2.8959624 2.362565,-3.0578762 1.398277,-0.159691 2.142407,0.4244857 3.639464,2.8571428 1.035,1.6818319 2.304928,4.2632337 2.822064,5.7364477 0.936972,2.669233 0.95435,2.678571 4.985379,2.678571 l 4.045135,0 0.43155,-3.148489 c 0.660129,-4.8161548 3.2821,-9.7086535 5.203029,-9.7086535 1.999021,0 3.930893,4.6520454 4.091793,9.8532395 l 0.110664,3.577238 4.126579,0.66527 4.126567,0.665268 1.44573,-3.273365 c 2.96,-6.7019158 7.88773,-9.5943697 8.97374,-5.2673564 0.47544,1.8943074 -0.0352,8.3621884 -0.81676,10.3443534 -0.36807,0.933558 0.36359,1.633002 3.22503,3.083003 l 3.70112,1.875498 2.46634,-2.881369 c 3.6305,-4.241424 6.39158,-6.011952 8.53605,-5.473722 1.69599,0.425665 1.76865,0.638436 1.30461,3.81993 -0.27028,1.853035 -1.21045,4.799029 -2.08927,6.546653 l -1.59784,3.177497 3.22502,2.665006 3.22503,2.665007 2.57403,-2.064173 c 1.41571,-1.135295 3.99104,-2.56278 5.72295,-3.172188 2.87513,-1.011679 3.26065,-1.006894 4.43407,0.05504 1.2334,1.116215 1.21605,1.299408 -0.43078,4.549287 -0.94377,1.862432 -2.55867,4.38776 -3.58867,5.611843 l -1.87272,2.225603 2.22462,3.233364 c 1.22353,1.778351 2.28953,3.233203 2.36887,3.233005 0.0793,-1.98e-4 1.83521,-0.643055 3.90192,-1.428571 4.90576,-1.864579 8.82999,-1.881348 9.97829,-0.04264 0.76152,1.219395 0.41804,1.840487 -2.8639,5.178572 -2.05105,2.086148 -4.26408,4.114426 -4.91782,4.507283 -1.09792,0.659785 -1.07825,0.99713 0.25788,4.42124 l 1.44649,3.706955 3.4236,-0.405475 c 5.32587,-0.630771 9.82275,0.270377 10.3983,2.083756 0.6193,1.951224 -2.91314,5.034288 -7.7915,6.800323 -3.38364,1.224926 -3.44552,1.301176 -3.04358,3.750347 0.22565,1.375 0.41382,3.179521 0.41814,4.010057 0.006,1.258872 0.57223,1.586807 3.40072,1.971507 1.86607,0.2538 4.75772,1.020707 6.42589,1.704236 2.47583,1.014457 3.03353,1.585814 3.03572,3.110014 0.002,1.539793 -0.52969,2.0704 -3.03304,3.0257 -1.66964,0.63715 -4.5625,1.367365 -6.42857,1.6227 -2.82761,0.386907 -3.39416,0.715822 -3.40072,1.9743 -0.004,0.830536 -0.19249,2.635057 -0.41814,4.010057 -0.40194,2.449172 -0.34006,2.525422 3.04358,3.750343 4.87836,1.76604 8.4108,4.8491 7.7915,6.80032 -0.57555,1.81338 -5.07243,2.71453 -10.3983,2.08376 l -3.4236,-0.40547 -1.44658,3.70695 -1.44657,3.70695 1.54585,1.03128 c 0.85021,0.56721 3.06056,2.59982 4.91188,4.51692 2.93947,3.0439 3.25715,3.66 2.50675,4.86158 -1.14196,1.82857 -5.07798,1.80795 -9.97227,-0.0523 -2.06671,-0.78551 -3.82258,-1.42837 -3.90192,-1.42857 -0.0793,-1.9e-4 -1.14534,1.45466 -2.36887,3.23301 l -2.22462,3.23336 1.87272,2.22561 c 1.03,1.22408 2.6449,3.7494 3.58867,5.61184 1.68884,3.33276 1.69426,3.40586 0.34297,4.62875 -1.29846,1.17509 -1.53904,1.17639 -4.43407,0.0237 -1.68362,-0.67033 -4.11067,-2.01562 -5.39345,-2.98953 -2.67036,-2.02737 -3.81467,-1.84112 -7.10217,1.15601 l -2.29165,2.08923 1.67833,3.07239 c 0.92309,1.68982 1.89207,4.58852 2.15329,6.44155 0.44769,3.17573 0.37184,3.39504 -1.32107,3.81993 -2.13235,0.53519 -4.90335,-1.22973 -8.46664,-5.39263 l -2.39694,-2.80029 -3.786,1.75408 c -3.01608,1.39737 -3.68604,2.00784 -3.29444,3.00192 0.79459,2.01704 1.31199,8.47322 0.83224,10.38469 -0.24349,0.97013 -1.12279,1.94172 -1.95402,2.15909 -1.90705,0.49871 -4.3723,-2.07459 -6.75323,-7.04922 l -1.728,-3.61042 -4.118687,0.68221 -4.118679,0.68222 -0.141307,3.64249 c -0.212986,5.49032 -1.760586,9.31126 -3.875136,9.56755 -1.443021,0.17489 -2.01295,-0.35304 -3.348264,-3.10151 l 0,2e-5 z m 5.294629,-18.18735 c 7.947524,-0.99653 13.323354,-2.47609 19.387324,-5.33586 9.26985,-4.37167 17.23378,-10.57512 23.19698,-18.06917 3.54439,-4.4543 3.62991,-4.66528 2.29787,-5.66874 -0.76094,-0.57323 -8.36646,-4.54768 -16.90115,-8.83211 l -15.51763,-7.78987 -2.33952,1.98973 c -5.426853,4.61549 -10.784174,6.56982 -18.009532,6.56982 l -5.058392,0 -8.391558,16.8012 -8.391557,16.8012 1.97005,0.74978 c 7.759407,2.95316 18.120429,3.99236 27.757115,2.78402 z M 59.614827,123.62835 c 4.616071,-8.97558 8.392857,-16.61598 8.392857,-16.97867 0,-0.36268 -1.258629,-2.33449 -2.796954,-4.38181 -3.690455,-4.91153 -5.345722,-9.986665 -5.316254,-16.299908 l 0.02362,-5.060757 -16.371057,-8.41625 C 32.255863,66.686232 26.94641,64.304272 26.436132,64.81455 c -1.011046,1.011046 -3.254653,10.679376 -3.82192,16.469726 -1.024094,10.453393 2.484996,26.524714 7.915482,36.252204 3.696527,6.6215 9.873723,14.12143 15.196739,18.45085 2.629688,2.13884 4.941965,3.90487 5.138394,3.92453 0.196429,0.0196 4.133929,-7.30791 8.75,-16.28351 l 0,0 z M 146.57911,108.2697 c 0,-0.14246 0.7018,-2.95496 1.55956,-6.25 2.2172,-8.517338 2.19109,-22.015288 -0.0599,-30.990988 -3.29273,-13.129196 -11.79769,-26.638637 -21.76241,-34.567806 -2.6407,-2.101266 -4.9019,-3.700976 -5.0249,-3.554911 -0.12298,0.146066 -3.99487,7.722296 -8.60418,16.836068 -5.30821,10.495665 -8.17193,16.911256 -7.81146,17.5 0.31301,0.511228 1.59663,2.279252 2.85249,3.928942 3.15343,4.142314 4.83886,9.567007 4.8627,15.651021 l 0.0199,5.079021 16.09127,8.299433 c 14.28911,7.36995 17.87693,8.9894 17.87693,8.06922 z m -52.952883,-6.70915 c 6.152407,-2.89256 9.835853,-9.494581 9.201343,-16.492024 -0.43845,-4.835329 -1.66856,-7.5272 -4.870072,-10.657264 -3.398621,-3.322785 -6.708414,-4.63255 -11.7065,-4.63255 -14.382757,0 -22.218247,16.897878 -12.713742,27.418228 5.434357,6.01519 13.055207,7.67054 20.088971,4.36361 z M 69.015965,66.451767 c 3.484319,-3.63685 9.929998,-6.065761 16.888841,-6.36419 l 6.1114,-0.262087 8.358654,-16.735305 8.35864,-16.735305 -1.85128,-0.703855 c -6.86115,-2.608606 -17.922207,-3.789501 -26.830279,-2.864443 -12.147725,1.26148 -22.57285,5.306365 -32.048133,12.43448 -6.137367,4.61705 -15.977247,15.479663 -14.914308,16.464463 0.430637,0.39898 33.083209,16.761885 33.534548,16.804882 0.221143,0.02106 1.297505,-0.896321 2.391917,-2.03864 z"
     id="path3364"
     inkscape:connector-curvature="0"
     inkscape:export-filename="G:\Work\FileZilla\watagaming\games\Prototype01\assets\cog.png"
     inkscape:export-xdpi="90"
     inkscape:export-ydpi="90" />
</svg>
